<?xml version="1.0" standalone="no"?>
<!DOCTYPE svg PUBLIC "-//W3C//DTD SVG 20010904//EN"
 "http://www.w3.org/TR/2001/REC-SVG-20010904/DTD/svg10.dtd">
<svg version="1.0" xmlns="http://www.w3.org/2000/svg"
 width="743.000000pt" height="298.000000pt" viewBox="0 0 743.000000 298.000000"
 preserveAspectRatio="xMidYMid meet">

<g transform="translate(0.000000,298.000000) scale(0.100000,-0.100000)"
fill="#000000" stroke="none">
<path d="M4607 2084 c-4 -4 -7 -29 -7 -56 l0 -49 53 3 52 3 0 50 0 50 -45 3
c-25 2 -49 0 -53 -4z"/>
<path d="M6140 1655 l0 -436 48 3 47 3 0 430 0 430 -47 3 -48 3 0 -436z"/>
<path d="M1335 2070 c-11 -5 -34 -9 -51 -9 -37 -1 -64 -25 -38 -35 28 -11 51
-6 98 20 25 14 46 28 46 30 0 7 -34 3 -55 -6z"/>
<path d="M1555 2020 c-3 -6 -11 -8 -16 -5 -5 4 -9 2 -9 -3 0 -6 16 -10 35 -9
19 1 33 1 32 2 -1 0 -9 6 -19 13 -11 9 -18 10 -23 2z"/>
<path d="M5015 1905 c-22 -8 -41 -15 -42 -15 -1 0 -3 -28 -5 -62 l-3 -63 -52
-3 c-53 -3 -53 -3 -53 -37 0 -34 0 -34 53 -37 l52 -3 5 -230 c3 -126 7 -231 8
-232 1 -2 24 -3 52 -3 l50 0 2 233 3 232 85 5 85 5 0 30 0 30 -87 3 -87 3 -3
76 c-2 42 -7 78 -13 79 -5 2 -28 -3 -50 -11z"/>
<path d="M1303 1833 c-7 -2 -13 -10 -13 -17 0 -7 -9 -21 -20 -31 -11 -10 -20
-30 -20 -45 0 -29 36 -84 49 -75 5 2 7 32 5 66 -1 34 2 73 7 85 4 13 7 24 6
23 -1 0 -8 -3 -14 -6z"/>
<path d="M1830 1747 c0 -63 -36 -141 -88 -189 -47 -45 -48 -45 -26 -61 27 -20
37 -72 25 -126 -17 -78 -99 -153 -266 -246 -98 -54 -99 -55 -10 -55 88 0 130
15 221 76 104 68 186 200 205 329 6 39 11 75 10 80 -7 78 -15 126 -22 131 -5
3 -9 14 -9 26 0 11 -9 31 -20 45 l-20 26 0 -36z"/>
<path d="M2180 1753 c-95 -41 -147 -153 -106 -231 25 -47 68 -79 168 -126 107
-49 141 -85 136 -141 -3 -30 -2 -30 47 -30 l50 0 3 42 c4 52 -25 112 -71 147
-18 14 -72 42 -121 62 -67 28 -93 44 -107 68 -27 44 -24 80 10 118 29 32 31
33 108 31 43 -2 92 -4 108 -5 26 -3 30 1 33 25 3 23 -2 30 -32 42 -46 20 -179
18 -226 -2z"/>
<path d="M2825 1758 c-88 -33 -148 -96 -185 -194 -26 -71 -27 -227 -2 -294
l17 -45 59 -3 c32 -2 56 1 54 5 -34 69 -48 112 -48 144 0 21 1 40 3 41 1 1
112 4 247 7 285 7 264 -5 230 132 -23 95 -67 158 -136 193 -46 24 -189 33
-239 14z m156 -60 c72 -22 137 -121 127 -191 -3 -22 -6 -22 -193 -22 l-190 0
-3 27 c-4 36 41 122 80 151 61 45 112 55 179 35z"/>
<path d="M3604 1751 c-18 -11 -46 -38 -65 -60 -44 -56 -57 -53 -61 12 l-3 52
-40 0 -40 0 0 -265 0 -265 53 -3 52 -3 0 144 c0 152 8 191 47 244 31 42 57 56
118 63 l50 5 3 48 3 47 -43 0 c-25 0 -56 -8 -74 -19z"/>
<path d="M5550 1740 c-120 -61 -183 -175 -182 -330 0 -66 11 -128 23 -136 5
-3 9 -13 9 -24 0 -22 19 -30 69 -30 49 0 54 7 29 40 -24 33 -47 115 -40 142 3
12 18 20 42 24 45 7 44 29 -1 39 -38 9 -53 35 -38 72 27 67 35 80 68 115 48
52 124 75 187 58 97 -28 155 -115 145 -221 0 -10 -13 -19 -30 -22 -16 -3 -31
-13 -34 -21 -5 -11 6 -16 46 -21 29 -4 66 -5 82 -3 30 3 30 3 27 63 -4 76 -17
118 -56 178 -68 104 -224 139 -346 77z"/>
<path d="M911 1748 c0 -10 -5 -18 -11 -18 -5 0 -10 -10 -10 -23 0 -13 -4 -27
-10 -33 -5 -5 -12 -48 -16 -95 -6 -73 -3 -95 17 -160 32 -101 63 -153 130
-219 61 -60 171 -125 195 -116 41 16 164 106 224 164 115 114 118 181 10 234
-62 30 -116 39 -251 41 -79 2 -101 6 -136 26 -64 37 -124 121 -136 191 -2 14
-5 17 -6 8z"/>
<path d="M3835 1733 c4 -16 29 -84 55 -153 27 -69 69 -177 93 -240 l44 -115
38 -3 c57 -5 70 3 51 30 -9 12 -16 32 -16 43 0 12 -4 25 -9 31 -4 5 -24 56
-44 114 -64 187 -98 283 -108 302 -7 14 -22 18 -60 18 -51 0 -51 0 -44 -27z"/>
<path d="M4339 1739 c-6 -11 -28 -71 -49 -132 -83 -241 -120 -343 -130 -359
-15 -27 -13 -28 34 -28 l44 0 105 263 c58 144 103 265 100 270 -2 4 -24 7 -48
7 -35 0 -47 -5 -56 -21z"/>
<path d="M4600 1490 l0 -271 53 3 52 3 0 265 0 265 -52 3 -53 3 0 -271z"/>
</g>
</svg>
